<?xml version="1.0" ?><svg id="Icon" viewBox="0 0 64 64" xmlns="http://www.w3.org/2000/svg"><title/><rect height="18" rx="4" style="fill:none;stroke:#4d4d4d;stroke-linecap:round;stroke-linejoin:round;stroke-width:2px" width="10" x="5" y="32.5"/><rect height="18" rx="4" style="fill:none;stroke:#4d4d4d;stroke-linecap:round;stroke-linejoin:round;stroke-width:2px" width="10" x="27" y="14"/><rect height="18" rx="4" style="fill:none;stroke:#4d4d4d;stroke-linecap:round;stroke-linejoin:round;stroke-width:2px" width="10" x="49" y="24"/><polyline points="12 50.37 12 63 8 63 8 50.37" style="fill:none;stroke:#4d4d4d;stroke-miterlimit:10;stroke-width:2px"/><polyline points="8 32.63 8 1 12 1 12 32.63" style="fill:none;stroke:#4d4d4d;stroke-miterlimit:10;stroke-width:2px"/><polyline points="30 14.13 30 1 34 1 34 14.13" style="fill:none;stroke:#4d4d4d;stroke-miterlimit:10;stroke-width:2px"/><polyline points="34 31.87 34 63 30 63 30 31.87" style="fill:none;stroke:#4d4d4d;stroke-miterlimit:10;stroke-width:2px"/><polyline points="52 24.13 52 1 56 1 56 24.13" style="fill:none;stroke:#4d4d4d;stroke-miterlimit:10;stroke-width:2px"/><polyline points="56 41.87 56 63 52 63 52 41.87" style="fill:none;stroke:#4d4d4d;stroke-miterlimit:10;stroke-width:2px"/><rect height="4" rx="1.5" style="fill:none;stroke:#4d4d4d;stroke-miterlimit:10;stroke-width:2px" width="4" x="8" y="37"/><rect height="4" rx="1.5" style="fill:none;stroke:#4d4d4d;stroke-miterlimit:10;stroke-width:2px" width="4" x="30" y="18"/><rect height="4" rx="1.5" style="fill:none;stroke:#4d4d4d;stroke-miterlimit:10;stroke-width:2px" width="4" x="52" y="28"/></svg>